Coordinates
version=1
nRows=10
nColumns=63
inDegrees=yes

Units are S.I. units (second, meters, Newtons, ...)
If the header above contains a line with 'inDegrees', this indicates whether rotational values are in degrees (yes) or radians (no).

endheader
time	pelvis_tilt	pelvis_list	pelvis_rotation	pelvis_tx	pelvis_ty	pelvis_tz	hip_flexion_r	hip_adduction_r	hip_rotation_r	knee_angle_r	knee_angle_r_beta	ankle_angle_r	subtalar_angle_r	mtp_angle_r	hip_flexion_l	hip_adduction_l	hip_rotation_l	knee_angle_l	knee_angle_l_beta	ankle_angle_l	subtalar_angle_l	mtp_angle_l	L5_S1_Flex_Ext	L5_S1_Lat_Bending	L5_S1_axial_rotation	L4_L5_Flex_Ext	L4_L5_Lat_Bending	L4_L5_axial_rotation	L3_L4_Flex_Ext	L3_L4_Lat_Bending	L3_L4_axial_rotation	L2_L3_Flex_Ext	L2_L3_Lat_Bending	L2_L3_axial_rotation	L1_L2_Flex_Ext	L1_L2_Lat_Bending	L1_L2_axial_rotation	L1_T12_Flex_Ext	L1_T12_Lat_Bending	L1_T12_axial_rotation	Abs_r3	Abs_r2	Abs_r1	Abs_t1	Abs_t2	neck_flexion	neck_bending	neck_rotation	arm_flex_r	arm_add_r	arm_rot_r	elbow_flex_r	pro_sup_r	wrist_flex_r	wrist_dev_r	arm_flex_l	arm_add_l	arm_rot_l	elbow_flex_l	pro_sup_l	wrist_flex_l	wrist_dev_l
      1.13333333	      3.75139627	     -9.06814987	     88.56758980	     -0.11509807	      0.77119265	      0.69976981	     13.81800780	      0.64193822	     -9.65857769	     11.21548057	      0.19574706	     26.40836310	     13.60604622	      0.00000000	     10.86774636	     -1.39166875	     -2.95994178	      4.17795273	      0.07291903	     24.62000928	      2.10747188	      0.00000000	      0.18922277	     -0.06497924	     -0.51558382	      0.35140561	     -0.08642239	     -0.54780781	      0.31087410	     -0.15799053	     -0.54780781	      0.21626271	     -0.15799053	     -0.45113584	      0.17571227	     -0.13250567	     -0.41891185	      0.10812189	     -0.10065285	     -0.38668786	      1.35159935	     -0.73505819	     -2.86752252	      0.00000000	      0.00000000	      8.56211277	     -0.92911028	      3.91462331	     28.97329266	    -61.03764948	     48.95208909	     54.29606152	     47.30261084	     10.19735817	      5.66460765	     -7.50712281	    -64.20103082	      8.52849104	     61.55981193	     85.69601517	     20.22402175	      9.24806183
      1.15000000	      3.72343083	     -9.10727180	     89.00212287	     -0.11626002	      0.77096653	      0.69920370	     13.89918404	      0.46287052	    -10.17676176	     11.63333338	      0.20303997	     26.60755521	     13.49929500	      0.00000000	     11.05124509	     -1.25799605	     -3.09546624	      4.25941794	      0.07434087	     25.17529524	      3.05233617	      0.00000000	      0.18221305	     -0.09656059	     -0.69549897	      0.33838785	     -0.12842558	     -0.73896766	      0.29935781	     -0.23477742	     -0.73896766	      0.20825129	     -0.23477742	     -0.60856160	      0.16920303	     -0.19690635	     -0.56509291	      0.10411653	     -0.14957235	     -0.52162423	      1.30152957	     -1.09231269	     -3.86815663	      0.00000000	      0.00000000	      8.99218342	     -1.08856202	      3.53913257	     30.03666080	    -60.45713552	     48.78197244	     53.78617061	     45.91860342	     10.73408436	      8.06127697	     -9.19516177	    -63.49265890	      6.83065509	     61.15414940	     80.69445380	     22.73740407	     11.14145033
      1.16666667	      3.61423249	     -9.15100177	     89.47261747	     -0.11716824	      0.77078965	      0.69880923	     14.04498841	      0.20376203	    -10.60573615	     12.15100880	      0.21207511	     26.85748677	     13.27124140	      0.00000000	     11.27130275	     -1.04712112	     -3.23343117	      4.36512292	      0.07618577	     25.69675509	      3.95340848	      0.00000000	      0.17472921	     -0.14719151	     -0.86677333	      0.32448962	     -0.19576471	     -0.92094666	      0.28706262	     -0.35788144	     -0.92094666	      0.19969801	     -0.35788144	     -0.75842666	      0.16225354	     -0.30015293	     -0.70425333	      0.09984027	     -0.22799965	     -0.65008000	      1.24807327	     -1.66505979	     -4.82073322	      0.00000000	      0.00000000	      9.60934503	     -1.40191473	      2.60329041	     30.79145034	    -59.95351702	     48.43355628	     53.62679353	     45.89143357	     11.02586894	      9.99856139	     -9.93419051	    -63.18131940	      7.06127091	     60.40393062	     76.16475124	     23.86505742	     12.00422483
      1.18333333	      3.46451260	     -9.09487318	     89.77718034	     -0.11795083	      0.77078201	      0.69832035	     14.05010819	     -0.05848376	    -10.88500560	     12.56833659	      0.21935886	     27.14145903	     13.03599910	      0.00000000	     11.35583580	     -0.86291149	     -4.72303893	      4.49800310	      0.07850496	     26.38484867	      6.45310724	      0.00000000	      0.16034087	     -0.20706869	     -0.92340034	      0.29776903	     -0.27540136	     -0.98111286	      0.26342401	     -0.50346681	     -0.98111286	      0.18325358	     -0.50346681	     -0.80797529	      0.14889253	     -0.42225447	     -0.75026277	      0.09161877	     -0.32074940	     -0.69255025	      1.14529879	     -2.34240243	     -5.13567565	      0.00000000	      0.00000000	     10.16554439	     -1.11923633	      1.92069570	     30.16108170	    -59.74430900	     46.47159430	     53.70774450	     47.16438559	     11.72330644	     11.02366524	     -8.71437860	    -63.41632689	     10.96695026	     59.58014579	     67.84955731	     22.03013330	     13.95491776
      1.20000000	      3.30221699	     -9.03801337	     90.34687021	     -0.11893348	      0.77071979	      0.69781922	     14.00577257	     -0.35768033	    -11.16136146	     12.91383376	      0.22538892	     27.44628177	     12.42167922	      0.00000000	     11.49114381	     -0.58410089	     -4.96184248	      4.74698293	      0.08285048	     26.77642095	      7.41148743	      0.00000000	      0.15420530	     -0.27878290	     -1.06522310	      0.28637466	     -0.37078126	     -1.13179955	      0.25334389	     -0.67783275	     -1.13179955	      0.17624124	     -0.67783275	     -0.93207021	      0.14319504	     -0.56849409	     -0.86549377	      0.08811291	     -0.43183472	     -0.79891733	      1.10147303	     -3.15364794	     -5.92445133	      0.00000000	      0.00000000	     10.54866629	     -0.97844452	      0.87101997	     30.03630206	    -59.39965709	     45.50092390	     53.85381536	     48.37940994	     12.01753831	     12.03572662	     -7.90420793	    -63.38442345	     13.70479208	     58.30902293	     65.78927819	     21.50627457	     12.33062313
      1.21666667	      3.26545552	     -8.94371513	     90.44208815	     -0.11976381	      0.77060221	      0.69721037	     13.94041019	     -0.47241708	    -11.07328102	     13.20780555	      0.23051969	     27.73107978	     12.33032673	      0.00000000	     11.42246079	     -0.47328032	     -4.89082343	      4.82225448	      0.08416422	     27.07606581	      7.53537178	      0.00000000	      0.14609782	     -0.32545951	     -1.12668949	      0.27131827	     -0.43286114	     -1.19710759	      0.24002412	     -0.79132225	     -1.19710759	      0.16697520	     -0.79132225	     -0.98585331	      0.13566644	     -0.66367703	     -0.91543521	      0.08348030	     -0.50413678	     -0.84501712	      1.04356215	     -3.68166304	     -6.26630896	      0.00000000	      0.00000000	     10.72603350	     -0.72006971	      0.43396079	     30.11668274	    -59.27405659	     45.26549199	     54.02351564	     48.47800376	     12.07131075	     12.03465377	     -7.83942232	    -62.45121560	     14.13063476	     57.19075632	     65.61336815	     21.01450453	     12.21241611
      1.23333333	      3.16288480	     -8.74605863	     91.06340129	     -0.12096608	      0.77070989	      0.69713257	     13.86967509	     -0.69767412	    -10.90225486	     13.74769139	      0.23994248	     27.94518635	     10.98127401	      0.00000000	     11.51865773	     -0.33796037	     -6.13224375	      5.44737540	      0.09507464	     27.48437460	      9.90750997	      0.00000000	      0.10538180	     -0.39393183	     -0.99916573	      0.19570454	     -0.52392933	     -1.06161358	      0.17313176	     -0.95780585	     -1.06161358	      0.12044086	     -0.95780585	     -0.87427001	      0.09785754	     -0.80330578	     -0.81182215	      0.06021516	     -0.61020040	     -0.74937429	      0.75273166	     -4.45623562	     -5.55706002	      0.00000000	      0.00000000	     10.49983355	     -0.84480919	     -1.94309472	     25.30791830	    -59.60158053	     38.11553648	     54.97584495	     51.15323400	     12.64461143	     12.76184609	     -2.42413646	    -62.94840208	     23.09762374	     55.63509159	     61.77214945	     17.89336008	      9.76205726
      1.25000000	      3.22885016	     -8.43298544	     91.40805014	     -0.12254098	      0.77095790	      0.69690482	     13.66680788	     -0.78720406	    -11.09892928	     14.20527258	      0.24792878	     28.17650916	     10.65602640	      0.00000000	     11.34615503	     -0.29850664	     -6.07145531	      5.85017474	      0.10210481	     27.53646083	      9.94514365	      0.00000000	      0.04754137	     -0.42221059	     -1.05240102	      0.08828908	     -0.56154008	     -1.11817608	      0.07810572	     -1.02656282	     -1.11817608	      0.05433503	     -1.02656282	     -0.92085089	      0.04414692	     -0.86097183	     -0.85507583	      0.02716514	     -0.65400420	     -0.78930076	      0.33958326	     -4.77613062	     -5.85313873	      0.00000000	      0.00000000	      9.84023407	     -0.66420894	     -2.44226836	     24.98613882	    -59.65679893	     37.54531434	     55.02379793	     50.89180486	     12.61535319	     12.45696743	     -2.50980782	    -61.85028550	     22.68242519	     54.71511669	     61.88135957	     17.20638192	      9.64554887
      1.26666667	      3.46266931	     -8.35306686	     92.37463168	     -0.12456926	      0.77092359	      0.69625668	     13.58504821	     -0.74925623	    -11.37266438	     14.49999036	      0.25307257	     28.22702410	      9.52722669	      0.00000000	     11.52735193	     -0.36788264	     -5.74097925	      6.43717443	      0.11234989	     27.67677268	     10.37639631	      0.00000000	      0.01128209	     -0.43907377	     -1.16803716	      0.02095196	     -0.58396812	     -1.24103948	      0.01853534	     -1.06756398	     -1.24103948	      0.01289430	     -1.06756398	     -1.02203251	      0.01047654	     -0.89535924	     -0.94903019	      0.00644658	     -0.68012528	     -0.87602787	      0.08058681	     -4.96689035	     -6.49627226	      0.00000000	      0.00000000	      9.25831660	     -0.77941452	     -3.55517946	     22.34828881	    -59.35274929	     33.41800005	     55.57348949	     49.61631348	     12.35602765	     13.09516411	     -4.15014947	    -60.54731127	     19.16512351	     55.21932123	     65.64530173	     14.99277885	      9.98634817
      1.28333333	      3.75640808	     -8.11979240	     93.17151739	     -0.12683950	      0.77122579	      0.69569783	     13.41463713	     -0.64797671	    -11.63277190	     14.86616309	      0.25946349	     28.20792881	      8.56716431	      0.00000000	     11.51814569	     -0.49617565	     -5.48990855	      6.97405160	      0.12172016	     27.74057161	     10.57395020	      0.00000000	     -0.04640058	     -0.43190155	     -1.30071713	     -0.08617052	     -0.57442906	     -1.38201195	     -0.07623151	     -1.05012543	     -1.38201195	     -0.05303122	     -1.05012543	     -1.13812749	     -0.04308758	     -0.88073364	     -1.05683267	     -0.02651329	     -0.66901550	     -0.97553785	     -0.33143470	     -4.88575673	     -7.23419846	      0.00000000	      0.00000000	      8.46332944	     -0.85225795	     -3.80491692	     21.22721172	    -59.04283845	     31.37210506	     55.68455855	     48.98535528	     12.28006958	     13.52909874	     -6.28882581	    -59.04444827	     14.89826294	     55.63463314	     69.50887123	     13.68617932	      9.95528911
